<svg version="1.1" id="Layer_1" xmlns="http://www.w3.org/2000/svg" xmlns:xlink="http://www.w3.org/1999/xlink" x="0px" y="0px"
	 width="100%" viewBox="0 0 1429 2000" enable-background="new 0 0 1429 2000" xml:space="preserve">
<path fill="#FFFFFF" opacity="1.000000" stroke="none" 
	d="
M637.000000,2001.000000 
	C424.666687,2001.000000 212.833389,2001.000000 1.000057,2001.000000 
	C1.000038,1334.333496 1.000038,667.666870 1.000019,1.000236 
	C477.333160,1.000157 953.666321,1.000157 1429.999634,1.000079 
	C1429.999756,667.666443 1429.999756,1334.332886 1429.999878,2000.999634 
	C1165.833374,2001.000000 901.666687,2001.000000 637.000000,2001.000000 
M690.954590,882.010376 
	C708.943115,882.010132 726.932617,881.915100 744.919495,882.086121 
	C748.721741,882.122253 750.212280,881.257446 750.079773,877.125793 
	C749.775635,867.641663 749.719055,858.130188 750.101440,848.651611 
	C750.291870,843.929871 748.730103,842.874573 744.227722,842.887634 
	C692.427795,843.038025 640.627136,842.980896 588.826721,842.993774 
	C587.052185,842.994202 585.277649,843.148621 582.982544,843.255493 
	C582.982544,854.820862 583.148865,865.942749 582.893921,877.054993 
	C582.802551,881.039368 584.025330,882.137451 587.968872,882.097900 
	C606.288391,881.913940 624.611023,882.038025 642.972168,882.706360 
	C642.998962,883.142639 643.025696,883.578979 643.006958,884.499756 
	C643.006958,884.499756 643.040833,884.985168 643.008728,885.664673 
	C643.020569,886.117859 643.032410,886.571045 642.990967,887.954956 
	C642.987000,944.878113 643.022156,1001.801270 642.896118,1058.724121 
	C642.887085,1062.785034 643.873169,1064.207397 648.131165,1064.111572 
	C660.275330,1063.837891 672.435242,1063.800781 684.576904,1064.123535 
	C689.109131,1064.244019 690.679443,1062.777100 689.991516,1058.475586 
	C689.860901,1057.659058 689.889404,1056.817139 689.922363,1055.182373 
	C689.902344,1054.105957 689.882324,1053.029541 689.949402,1051.029907 
	C689.920410,1000.036621 689.891418,949.043396 689.927917,897.202881 
	C689.907898,895.787659 689.887817,894.372437 689.952087,892.071167 
	C689.934570,889.394958 689.917053,886.718689 689.950806,883.365417 
	C689.974304,882.913391 689.997742,882.461365 690.954590,882.010376 
M141.015549,1067.138550 
	C141.339615,1064.010864 141.943802,1060.883423 141.946594,1057.755493 
	C142.009216,987.926208 142.007385,918.096985 142.003113,848.267700 
	C142.003006,846.664246 141.833313,845.060730 141.717545,843.011414 
	C126.642120,843.011414 112.012436,842.981750 97.383942,843.096680 
	C96.629440,843.102661 95.884659,844.345459 95.088364,845.673462 
	C95.101646,846.114746 95.114937,846.556091 95.062088,847.497437 
	C95.078529,847.664734 95.094963,847.832092 95.052917,848.934875 
	C95.068764,915.636658 95.084610,982.338379 95.023399,1049.930298 
	C94.770546,1053.613281 94.517693,1057.296387 94.129601,1061.779663 
	C94.110542,1062.860718 94.091476,1063.941772 93.752319,1065.701782 
	C90.844467,1071.802246 87.936615,1077.902710 84.318024,1084.102905 
	C80.886322,1085.679443 77.560753,1088.229126 73.999466,1088.617554 
	C67.775482,1089.296509 61.398666,1088.805420 55.101517,1088.491455 
	C51.596088,1088.316650 48.122215,1087.509155 44.084423,1086.904541 
	C44.084423,1099.220825 43.944981,1110.683716 44.264263,1122.133911 
	C44.303345,1123.535278 46.589256,1125.689819 48.192497,1126.102783 
	C61.025677,1129.407227 74.056282,1129.985596 87.166702,1127.939453 
	C105.228859,1125.120483 120.073082,1117.054443 130.066956,1101.272461 
	C136.503632,1091.107788 139.544693,1079.804443 141.015549,1067.138550 
M831.614685,970.891846 
	C832.095947,969.953491 832.577209,969.015137 833.988159,968.057434 
	C854.293762,968.051697 874.599365,968.046265 894.904968,968.040222 
	C905.310181,968.037170 905.302734,968.036804 905.225037,957.561096 
	C905.220276,956.914551 905.582214,956.267883 905.593445,955.618103 
	C905.722656,948.139160 905.894775,940.658997 905.834900,933.180847 
	C905.826233,932.090271 904.666565,931.008911 903.833130,929.611084 
	C903.541199,929.711304 903.249268,929.811523 902.025635,929.929993 
	C878.701233,929.919373 855.376831,929.908813 831.802063,929.494812 
	C831.588135,929.246582 831.322754,929.080505 830.969604,928.060181 
	C830.963745,914.231812 831.125061,900.400146 830.853516,886.577026 
	C830.768555,882.253723 831.846924,880.888733 836.364990,880.934204 
	C859.520874,881.167297 882.681335,880.935303 905.837952,881.128845 
	C910.045105,881.164001 911.243347,879.905518 911.115845,875.782104 
	C910.827637,866.460876 910.863403,857.121216 911.089600,847.796875 
	C911.177856,844.160278 910.235046,842.891724 906.385681,842.905090 
	C867.233704,843.041504 828.080811,843.052551 788.928833,842.913025 
	C784.922424,842.898743 783.877930,844.094055 783.899963,848.002136 
	C784.053040,875.158081 783.974731,902.315308 783.975952,929.472168 
	C783.977783,972.456604 784.041504,1015.441284 783.897644,1058.425293 
	C783.883484,1062.669312 784.747253,1064.415527 789.359436,1064.106567 
	C795.496277,1063.695557 801.681458,1064.005005 807.845886,1064.005005 
	C840.500732,1064.004883 873.155945,1063.932617 905.809998,1064.093628 
	C909.986572,1064.114258 911.346130,1062.914185 911.102295,1058.754639 
	C910.771362,1053.109497 911.025208,1047.430298 911.026489,1041.765625 
	C911.027710,1036.337769 911.026794,1030.910034 911.026794,1025.036865 
	C908.419434,1025.036865 906.619507,1025.036987 904.819580,1025.036865 
	C881.994507,1025.035767 859.168091,1024.904907 836.345520,1025.143311 
	C831.794006,1025.190674 830.794800,1023.752747 830.855713,1019.469604 
	C831.085571,1003.312195 830.931885,987.149475 831.614685,970.891846 
M1335.793579,843.569519 
	C1335.601074,843.271362 1335.329590,843.094116 1334.044556,843.014343 
	C1319.138306,843.014343 1304.232056,843.014343 1288.896973,843.014343 
	C1288.896973,872.345215 1288.896973,900.778320 1288.896973,929.078003 
	C1281.003052,929.078003 1273.557495,929.078125 1266.111816,929.078003 
	C1246.451660,929.077515 1226.789795,928.930664 1207.132812,929.182922 
	C1202.435425,929.243164 1200.896729,928.106445 1200.946777,923.179504 
	C1201.196777,898.523621 1201.065674,873.863770 1201.047607,849.205322 
	C1201.046143,847.278259 1200.882812,845.351318 1200.775391,842.999878 
	C1186.098022,842.999878 1171.965942,843.018860 1157.833862,842.986450 
	C1154.329590,842.978394 1154.956299,845.485962 1154.947632,847.552856 
	C1154.648804,918.165344 1154.397095,988.778137 1154.001831,1059.390015 
	C1153.979980,1063.298096 1155.348999,1064.134521 1158.918945,1064.082031 
	C1171.245605,1063.900513 1183.580444,1063.828491 1195.903442,1064.102295 
	C1200.185791,1064.197510 1201.161011,1062.739258 1201.138672,1058.697388 
	C1200.983398,1030.541016 1201.054810,1002.383362 1201.072510,974.226074 
	C1201.073730,972.300720 1201.229980,970.375427 1201.312012,968.500854 
	C1230.752686,968.500854 1259.591553,968.500854 1289.060059,968.500854 
	C1289.060059,1000.329651 1289.060059,1031.881836 1289.060059,1063.663208 
	C1304.911377,1063.663208 1320.130493,1063.663208 1335.944702,1063.663208 
	C1335.944702,990.229370 1335.944702,917.137024 1335.793579,843.569519 
M264.500000,1011.041016 
	C279.495728,1011.041931 294.497345,1011.283997 309.484100,1010.918152 
	C315.029846,1010.782715 317.492981,1012.807922 318.978882,1017.976501 
	C323.007935,1031.991333 327.729095,1045.809204 331.647369,1059.852661 
	C332.693115,1063.600586 334.436066,1064.065308 337.590881,1064.044434 
	C351.253082,1063.954468 364.916229,1064.023804 378.578949,1063.992310 
	C379.965332,1063.989136 381.351074,1063.698486 383.071533,1063.503296 
	C382.661011,1061.990356 382.462250,1061.039551 382.147217,1060.129028 
	C375.524506,1040.987915 368.958801,1021.826477 362.237488,1002.719971 
	C353.914673,979.060730 345.432037,955.457764 337.070648,931.812012 
	C326.884674,903.006470 316.797089,874.165833 306.471252,845.410645 
	C305.941162,843.934448 303.583374,842.163574 302.054596,842.142822 
	C285.062469,841.911499 268.065247,842.083435 251.071579,841.920898 
	C248.058090,841.892090 247.026291,843.225159 246.234283,845.699036 
	C244.312286,851.702271 242.288712,857.674988 240.193771,863.620483 
	C227.439163,899.818237 214.648193,936.003235 201.879288,972.196045 
	C193.813416,995.058350 185.740005,1017.918030 177.722977,1040.797485 
	C175.104080,1048.271484 172.652420,1055.804199 169.899002,1063.978882 
	C186.594086,1063.978882 202.551376,1064.039551 218.505325,1063.838623 
	C219.537308,1063.825562 221.076080,1061.966309 221.481033,1060.682739 
	C226.072922,1046.127563 230.697571,1031.575684 234.826508,1016.885986 
	C236.068741,1012.466553 238.356857,1010.988403 242.506042,1011.026672 
	C249.503479,1011.091187 256.501953,1011.042236 264.500000,1011.041016 
M1115.344360,857.163513 
	C1114.106445,855.754028 1113.123047,853.554504 1111.589966,853.060364 
	C1099.617188,849.201416 1087.718506,844.819946 1075.452759,842.228577 
	C1054.869263,837.880005 1034.218384,838.724792 1014.036255,845.231079 
	C992.807129,852.074829 976.220337,865.091614 964.656372,884.077332 
	C952.338318,904.301086 947.513245,926.818787 947.227722,950.177490 
	C946.994263,969.271057 948.534546,988.304565 955.093994,1006.556702 
	C960.396606,1021.311829 967.991516,1034.683716 979.861755,1045.065063 
	C996.970825,1060.028076 1017.573853,1066.374390 1039.902954,1066.800415 
	C1051.639404,1067.024414 1063.519897,1066.350708 1075.126953,1064.655884 
	C1084.728149,1063.253662 1094.064331,1059.892944 1103.417847,1057.068848 
	C1105.150635,1056.545776 1107.665039,1054.465332 1107.686157,1053.071411 
	C1107.866577,1041.177490 1107.554688,1029.276001 1107.380005,1016.634460 
	C1103.817749,1017.472778 1101.397095,1017.878723 1099.080933,1018.613464 
	C1081.010376,1024.345825 1062.872925,1029.075806 1043.542358,1027.153931 
	C1028.692627,1025.677490 1016.868225,1019.434937 1008.476807,1007.145447 
	C1000.987915,996.177795 998.006775,983.727539 996.797546,970.617004 
	C994.947021,950.552185 995.579224,930.872986 1003.107788,911.829407 
	C1012.642944,887.709961 1036.053711,874.286377 1061.097412,880.014404 
	C1072.796509,882.690186 1084.031250,887.503540 1095.339233,891.716309 
	C1098.882080,893.036072 1101.157837,893.524719 1102.749023,889.336182 
	C1106.750977,878.801147 1110.958862,868.344360 1115.344360,857.163513 
M503.056763,1014.500000 
	C503.056519,1004.502991 502.839569,994.498718 503.172974,984.512878 
	C503.290588,980.989380 504.071014,977.145935 505.714294,974.071533 
	C515.732300,955.328674 526.131470,936.790222 536.314148,918.134766 
	C545.467041,901.366028 554.521118,884.543335 563.586914,867.727295 
	C567.899719,859.727295 572.138245,851.687317 576.756470,843.015747 
	C559.973206,843.015747 543.871521,842.968079 527.771912,843.126099 
	C526.731140,843.136353 525.302429,844.522522 524.735291,845.620483 
	C518.123230,858.420532 511.638336,871.286316 505.127380,884.138550 
	C496.962128,900.256287 488.803802,916.377502 480.277954,933.217285 
	C479.053772,930.977478 478.155823,929.437256 477.352356,927.849243 
	C463.725952,900.917053 450.069916,873.999695 436.553955,847.012146 
	C435.104767,844.118591 433.512878,842.860229 430.116425,842.911804 
	C416.290344,843.121826 402.459076,842.984619 388.629822,843.012268 
	C387.238098,843.015076 385.846924,843.266357 383.650269,843.481018 
	C386.675110,849.252563 389.301331,854.363770 392.016785,859.427124 
	C402.942169,879.799133 413.902222,900.152527 424.835876,920.520081 
	C434.650635,938.803223 444.535797,957.049744 454.162903,975.431274 
	C455.708435,978.382263 456.822968,981.948364 456.852844,985.241699 
	C457.076599,1009.899170 457.045868,1034.559937 456.905487,1059.218750 
	C456.884705,1062.867432 457.807465,1064.160767 461.637695,1064.090820 
	C473.963348,1063.866211 486.297302,1063.898926 498.624420,1064.080444 
	C502.164307,1064.132446 503.165039,1062.934204 503.127319,1059.486572 
	C502.966888,1044.825806 503.057800,1030.162476 503.056763,1014.500000 
z"/>
<path fill="#FEB0E0" opacity="1.000000" stroke="none" 
	d="
M1335.944702,844.044617 
	C1335.944702,917.137024 1335.944702,990.229370 1335.944702,1063.663208 
	C1320.130493,1063.663208 1304.911377,1063.663208 1289.060059,1063.663208 
	C1289.060059,1031.881836 1289.060059,1000.329651 1289.060059,968.500854 
	C1259.591553,968.500854 1230.752686,968.500854 1201.312012,968.500854 
	C1201.229980,970.375427 1201.073730,972.300720 1201.072510,974.226074 
	C1201.054810,1002.383362 1200.983398,1030.541016 1201.138672,1058.697388 
	C1201.161011,1062.739258 1200.185791,1064.197510 1195.903442,1064.102295 
	C1183.580444,1063.828491 1171.245605,1063.900513 1158.918945,1064.082031 
	C1155.348999,1064.134521 1153.979980,1063.298096 1154.001831,1059.390015 
	C1154.397095,988.778137 1154.648804,918.165344 1154.947632,847.552856 
	C1154.956299,845.485962 1154.329590,842.978394 1157.833862,842.986450 
	C1171.965942,843.018860 1186.098022,842.999878 1200.775391,842.999878 
	C1200.882812,845.351318 1201.046143,847.278259 1201.047607,849.205322 
	C1201.065674,873.863770 1201.196777,898.523621 1200.946777,923.179504 
	C1200.896729,928.106445 1202.435425,929.243164 1207.132812,929.182922 
	C1226.789795,928.930664 1246.451660,929.077515 1266.111816,929.078003 
	C1273.557495,929.078125 1281.003052,929.078003 1288.896973,929.078003 
	C1288.896973,900.778320 1288.896973,872.345215 1288.896973,843.014343 
	C1304.232056,843.014343 1319.138306,843.014343 1334.623535,843.237061 
	C1335.390991,843.729370 1335.638428,843.924255 1335.944702,844.044617 
z"/>
<path fill="#FEB1E0" opacity="1.000000" stroke="none" 
	d="
M264.000000,1011.041016 
	C256.501953,1011.042236 249.503479,1011.091187 242.506042,1011.026672 
	C238.356857,1010.988403 236.068741,1012.466553 234.826508,1016.885986 
	C230.697571,1031.575684 226.072922,1046.127563 221.481033,1060.682739 
	C221.076080,1061.966309 219.537308,1063.825562 218.505325,1063.838623 
	C202.551376,1064.039551 186.594086,1063.978882 169.899002,1063.978882 
	C172.652420,1055.804199 175.104080,1048.271484 177.722977,1040.797485 
	C185.740005,1017.918030 193.813416,995.058350 201.879288,972.196045 
	C214.648193,936.003235 227.439163,899.818237 240.193771,863.620483 
	C242.288712,857.674988 244.312286,851.702271 246.234283,845.699036 
	C247.026291,843.225159 248.058090,841.892090 251.071579,841.920898 
	C268.065247,842.083435 285.062469,841.911499 302.054596,842.142822 
	C303.583374,842.163574 305.941162,843.934448 306.471252,845.410645 
	C316.797089,874.165833 326.884674,903.006470 337.070648,931.812012 
	C345.432037,955.457764 353.914673,979.060730 362.237488,1002.719971 
	C368.958801,1021.826477 375.524506,1040.987915 382.147217,1060.129028 
	C382.462250,1061.039551 382.661011,1061.990356 383.071533,1063.503296 
	C381.351074,1063.698486 379.965332,1063.989136 378.578949,1063.992310 
	C364.916229,1064.023804 351.253082,1063.954468 337.590881,1064.044434 
	C334.436066,1064.065308 332.693115,1063.600586 331.647369,1059.852661 
	C327.729095,1045.809204 323.007935,1031.991333 318.978882,1017.976501 
	C317.492981,1012.807922 315.029846,1010.782715 309.484100,1010.918152 
	C294.497345,1011.283997 279.495728,1011.041931 264.000000,1011.041016 
M275.992889,879.726257 
	C267.086548,909.073547 258.168457,938.417297 249.317902,967.781372 
	C248.972641,968.926880 249.273865,970.267273 249.273865,971.525269 
	C268.050385,971.525269 286.367828,971.525269 304.939789,971.525269 
	C304.839142,970.230164 304.920410,969.382568 304.693420,968.627686 
	C295.721405,938.789917 286.723602,908.959961 277.668823,879.147217 
	C277.617432,878.977966 276.716309,879.066895 275.992889,879.726257 
z"/>
<path fill="#FEB1E0" opacity="1.000000" stroke="none" 
	d="
M904.039429,929.923279 
	C904.666565,931.008911 905.826233,932.090271 905.834900,933.180847 
	C905.894775,940.658997 905.722656,948.139160 905.593445,955.618103 
	C905.582214,956.267883 905.220276,956.914551 905.225037,957.561096 
	C905.302734,968.036804 905.310181,968.037170 894.904968,968.040222 
	C874.599365,968.046265 854.293762,968.051697 833.166687,968.040222 
	C831.870789,969.011597 831.396301,970.000122 830.921814,970.988708 
	C830.931885,987.149475 831.085571,1003.312195 830.855713,1019.469604 
	C830.794800,1023.752747 831.794006,1025.190674 836.345520,1025.143311 
	C859.168091,1024.904907 881.994507,1025.035767 904.819580,1025.036865 
	C906.619507,1025.036987 908.419434,1025.036865 911.026794,1025.036865 
	C911.026794,1030.910034 911.027710,1036.337769 911.026489,1041.765625 
	C911.025208,1047.430298 910.771362,1053.109497 911.102295,1058.754639 
	C911.346130,1062.914185 909.986572,1064.114258 905.809998,1064.093628 
	C873.155945,1063.932617 840.500732,1064.004883 807.845886,1064.005005 
	C801.681458,1064.005005 795.496277,1063.695557 789.359436,1064.106567 
	C784.747253,1064.415527 783.883484,1062.669312 783.897644,1058.425293 
	C784.041504,1015.441284 783.977783,972.456604 783.975952,929.472168 
	C783.974731,902.315308 784.053040,875.158081 783.899963,848.002136 
	C783.877930,844.094055 784.922424,842.898743 788.928833,842.913025 
	C828.080811,843.052551 867.233704,843.041504 906.385681,842.905090 
	C910.235046,842.891724 911.177856,844.160278 911.089600,847.796875 
	C910.863403,857.121216 910.827637,866.460876 911.115845,875.782104 
	C911.243347,879.905518 910.045105,881.164001 905.837952,881.128845 
	C882.681335,880.935303 859.520874,881.167297 836.364990,880.934204 
	C831.846924,880.888733 830.768555,882.253723 830.853516,886.577026 
	C831.125061,900.400146 830.963745,914.231812 831.090820,928.750977 
	C831.423279,929.720764 831.703430,929.872925 832.052429,929.898193 
	C855.376831,929.908813 878.701233,929.919373 902.761841,929.946472 
	C903.678528,929.949707 903.858948,929.936523 904.039429,929.923279 
z"/>
<path fill="#FEB1E0" opacity="1.000000" stroke="none" 
	d="
M1115.214355,857.509888 
	C1110.958862,868.344360 1106.750977,878.801147 1102.749023,889.336182 
	C1101.157837,893.524719 1098.882080,893.036072 1095.339233,891.716309 
	C1084.031250,887.503540 1072.796509,882.690186 1061.097412,880.014404 
	C1036.053711,874.286377 1012.642944,887.709961 1003.107788,911.829407 
	C995.579224,930.872986 994.947021,950.552185 996.797546,970.617004 
	C998.006775,983.727539 1000.987915,996.177795 1008.476807,1007.145447 
	C1016.868225,1019.434937 1028.692627,1025.677490 1043.542358,1027.153931 
	C1062.872925,1029.075806 1081.010376,1024.345825 1099.080933,1018.613464 
	C1101.397095,1017.878723 1103.817749,1017.472778 1107.380005,1016.634460 
	C1107.554688,1029.276001 1107.866577,1041.177490 1107.686157,1053.071411 
	C1107.665039,1054.465332 1105.150635,1056.545776 1103.417847,1057.068848 
	C1094.064331,1059.892944 1084.728149,1063.253662 1075.126953,1064.655884 
	C1063.519897,1066.350708 1051.639404,1067.024414 1039.902954,1066.800415 
	C1017.573853,1066.374390 996.970825,1060.028076 979.861755,1045.065063 
	C967.991516,1034.683716 960.396606,1021.311829 955.093994,1006.556702 
	C948.534546,988.304565 946.994263,969.271057 947.227722,950.177490 
	C947.513245,926.818787 952.338318,904.301086 964.656372,884.077332 
	C976.220337,865.091614 992.807129,852.074829 1014.036255,845.231079 
	C1034.218384,838.724792 1054.869263,837.880005 1075.452759,842.228577 
	C1087.718506,844.819946 1099.617188,849.201416 1111.589966,853.060364 
	C1113.123047,853.554504 1114.106445,855.754028 1115.214355,857.509888 
z"/>
<path fill="#FEB1E0" opacity="1.000000" stroke="none" 
	d="
M503.056824,1015.000000 
	C503.057800,1030.162476 502.966888,1044.825806 503.127319,1059.486572 
	C503.165039,1062.934204 502.164307,1064.132446 498.624420,1064.080444 
	C486.297302,1063.898926 473.963348,1063.866211 461.637695,1064.090820 
	C457.807465,1064.160767 456.884705,1062.867432 456.905487,1059.218750 
	C457.045868,1034.559937 457.076599,1009.899170 456.852844,985.241699 
	C456.822968,981.948364 455.708435,978.382263 454.162903,975.431274 
	C444.535797,957.049744 434.650635,938.803223 424.835876,920.520081 
	C413.902222,900.152527 402.942169,879.799133 392.016785,859.427124 
	C389.301331,854.363770 386.675110,849.252563 383.650269,843.481018 
	C385.846924,843.266357 387.238098,843.015076 388.629822,843.012268 
	C402.459076,842.984619 416.290344,843.121826 430.116425,842.911804 
	C433.512878,842.860229 435.104767,844.118591 436.553955,847.012146 
	C450.069916,873.999695 463.725952,900.917053 477.352356,927.849243 
	C478.155823,929.437256 479.053772,930.977478 480.277954,933.217285 
	C488.803802,916.377502 496.962128,900.256287 505.127380,884.138550 
	C511.638336,871.286316 518.123230,858.420532 524.735291,845.620483 
	C525.302429,844.522522 526.731140,843.136353 527.771912,843.126099 
	C543.871521,842.968079 559.973206,843.015747 576.756470,843.015747 
	C572.138245,851.687317 567.899719,859.727295 563.586914,867.727295 
	C554.521118,884.543335 545.467041,901.366028 536.314148,918.134766 
	C526.131470,936.790222 515.732300,955.328674 505.714294,974.071533 
	C504.071014,977.145935 503.290588,980.989380 503.172974,984.512878 
	C502.839569,994.498718 503.056519,1004.502991 503.056824,1015.000000 
z"/>
<path fill="#FEB0E0" opacity="1.000000" stroke="none" 
	d="
M94.072418,1065.022827 
	C94.091476,1063.941772 94.110542,1062.860718 94.556244,1061.272461 
	C95.022072,1056.856934 95.061264,1052.948486 95.100449,1049.040161 
	C95.084610,982.338379 95.068764,915.636658 95.316925,848.449036 
	C95.829994,847.810547 96.079041,847.657898 96.328079,847.505249 
	C95.928116,847.335999 95.528168,847.166687 95.128220,846.997375 
	C95.114937,846.556091 95.101646,846.114746 95.512321,845.281006 
	C97.889130,844.591553 99.840057,844.053284 101.795151,844.037720 
	C112.294312,843.954224 122.794518,843.999451 133.294357,844.002747 
	C140.984177,844.005188 140.991821,844.007019 140.992065,851.882568 
	C140.994064,915.048279 141.018661,978.214050 140.950790,1041.379761 
	C140.944366,1047.337402 140.208054,1053.291870 140.090393,1059.253296 
	C140.033173,1062.153564 140.622360,1065.066406 140.918915,1067.973633 
	C139.544693,1079.804443 136.503632,1091.107788 130.066956,1101.272461 
	C120.073082,1117.054443 105.228859,1125.120483 87.166702,1127.939453 
	C74.056282,1129.985596 61.025677,1129.407227 48.192497,1126.102783 
	C46.589256,1125.689819 44.303345,1123.535278 44.264263,1122.133911 
	C43.944981,1110.683716 44.084423,1099.220825 44.084423,1086.904541 
	C48.122215,1087.509155 51.596088,1088.316650 55.101517,1088.491455 
	C61.398666,1088.805420 67.775482,1089.296509 73.999466,1088.617554 
	C77.560753,1088.229126 80.886322,1085.679443 85.043297,1084.047119 
	C91.747345,1081.421997 95.629234,1072.554565 94.072418,1065.022827 
z"/>
<path fill="#FEB0E0" opacity="1.000000" stroke="none" 
	d="
M643.052490,884.015259 
	C643.025696,883.578979 642.998962,883.142639 643.080566,882.096069 
	C641.425171,881.321960 639.662537,881.030762 637.897339,881.014038 
	C621.458496,880.858704 605.019165,880.750549 588.580017,880.628662 
	C585.421143,880.605225 583.855225,879.427673 583.925476,875.856506 
	C584.129639,865.471558 583.997925,855.080017 583.997925,844.313904 
	C586.673096,844.172180 588.293579,844.011780 589.914001,844.011353 
	C640.704163,843.998962 691.494263,844.001770 742.284424,844.004822 
	C743.283020,844.004883 744.588989,843.643555 745.214600,844.134644 
	C746.417114,845.078857 748.054138,846.497314 748.079590,847.748108 
	C748.258850,856.562744 748.057983,865.384705 748.009949,874.204468 
	C747.973022,880.987488 747.993408,880.992859 740.983337,880.993958 
	C725.329956,880.996399 709.676514,880.968445 694.023438,881.036194 
	C692.687927,881.041992 691.355225,881.670227 690.021179,882.009338 
	C689.997742,882.461365 689.974304,882.913391 689.658203,883.982666 
	C689.533020,887.385681 689.700378,890.171448 689.867798,892.957214 
	C689.887817,894.372437 689.907898,895.787659 689.627197,897.930908 
	C689.217224,899.307983 689.012329,899.956970 689.012146,900.606079 
	C688.996155,949.808411 688.989929,999.010681 689.031433,1048.213013 
	C689.032471,1049.459961 689.573242,1050.706421 689.862305,1051.953125 
	C689.882324,1053.029541 689.902344,1054.105957 689.521606,1055.682983 
	C688.486389,1057.959229 687.851929,1059.734863 687.042603,1062.000000 
	C675.092407,1062.000000 662.953125,1061.747192 650.833130,1062.120850 
	C645.787231,1062.276367 644.409241,1059.802002 644.039001,1055.706787 
	C643.904480,1054.218506 643.998474,1052.709229 643.998413,1051.209473 
	C643.997375,998.383362 644.007446,945.557312 643.957336,892.731262 
	C643.955505,890.828613 643.362000,888.926575 643.044250,887.024231 
	C643.032410,886.571045 643.020569,886.117859 643.183838,885.239624 
	C643.418884,884.711304 643.554321,884.553467 643.525879,884.514038 
	C643.392822,884.329895 643.214600,884.178406 643.052490,884.015259 
z"/>
<path fill="#EFBBD9" opacity="1.000000" stroke="none" 
	d="
M690.487915,882.009888 
	C691.355225,881.670227 692.687927,881.041992 694.023438,881.036194 
	C709.676514,880.968445 725.329956,880.996399 740.983337,880.993958 
	C747.993408,880.992859 747.973022,880.987488 748.009949,874.204468 
	C748.057983,865.384705 748.258850,856.562744 748.079590,847.748108 
	C748.054138,846.497314 746.417114,845.078857 745.214600,844.134644 
	C744.588989,843.643555 743.283020,844.004883 742.284424,844.004822 
	C691.494263,844.001770 640.704163,843.998962 589.914001,844.011353 
	C588.293579,844.011780 586.673096,844.172180 583.997925,844.313904 
	C583.997925,855.080017 584.129639,865.471558 583.925476,875.856506 
	C583.855225,879.427673 585.421143,880.605225 588.580017,880.628662 
	C605.019165,880.750549 621.458496,880.858704 637.897339,881.014038 
	C639.662537,881.030762 641.425171,881.321960 643.060730,881.768860 
	C624.611023,882.038025 606.288391,881.913940 587.968872,882.097900 
	C584.025330,882.137451 582.802551,881.039368 582.893921,877.054993 
	C583.148865,865.942749 582.982544,854.820862 582.982544,843.255493 
	C585.277649,843.148621 587.052185,842.994202 588.826721,842.993774 
	C640.627136,842.980896 692.427795,843.038025 744.227722,842.887634 
	C748.730103,842.874573 750.291870,843.929871 750.101440,848.651611 
	C749.719055,858.130188 749.775635,867.641663 750.079773,877.125793 
	C750.212280,881.257446 748.721741,882.122253 744.919495,882.086121 
	C726.932617,881.915100 708.943115,882.010132 690.487915,882.009888 
z"/>
<path fill="#EFBBD9" opacity="1.000000" stroke="none" 
	d="
M643.017578,887.489624 
	C643.362000,888.926575 643.955505,890.828613 643.957336,892.731262 
	C644.007446,945.557312 643.997375,998.383362 643.998413,1051.209473 
	C643.998474,1052.709229 643.904480,1054.218506 644.039001,1055.706787 
	C644.409241,1059.802002 645.787231,1062.276367 650.833130,1062.120850 
	C662.953125,1061.747192 675.092407,1062.000000 687.042603,1062.000000 
	C687.851929,1059.734863 688.486389,1057.959229 689.482666,1056.085205 
	C689.889404,1056.817139 689.860901,1057.659058 689.991516,1058.475586 
	C690.679443,1062.777100 689.109131,1064.244019 684.576904,1064.123535 
	C672.435242,1063.800781 660.275330,1063.837891 648.131165,1064.111572 
	C643.873169,1064.207397 642.887085,1062.785034 642.896118,1058.724121 
	C643.022156,1001.801270 642.987000,944.878113 643.017578,887.489624 
z"/>
<path fill="#EFBBD9" opacity="1.000000" stroke="none" 
	d="
M140.967224,1067.556152 
	C140.622360,1065.066406 140.033173,1062.153564 140.090393,1059.253296 
	C140.208054,1053.291870 140.944366,1047.337402 140.950790,1041.379761 
	C141.018661,978.214050 140.994064,915.048279 140.992065,851.882568 
	C140.991821,844.007019 140.984177,844.005188 133.294357,844.002747 
	C122.794518,843.999451 112.294312,843.954224 101.795151,844.037720 
	C99.840057,844.053284 97.889130,844.591553 95.535812,844.950562 
	C95.884659,844.345459 96.629440,843.102661 97.383942,843.096680 
	C112.012436,842.981750 126.642120,843.011414 141.717545,843.011414 
	C141.833313,845.060730 142.003006,846.664246 142.003113,848.267700 
	C142.007385,918.096985 142.009216,987.926208 141.946594,1057.755493 
	C141.943802,1060.883423 141.339615,1064.010864 140.967224,1067.556152 
z"/>
<path fill="#EFBBD9" opacity="1.000000" stroke="none" 
	d="
M689.905884,1051.491455 
	C689.573242,1050.706421 689.032471,1049.459961 689.031433,1048.213013 
	C688.989929,999.010681 688.996155,949.808411 689.012146,900.606079 
	C689.012329,899.956970 689.217224,899.307983 689.594482,898.354492 
	C689.891418,949.043396 689.920410,1000.036621 689.905884,1051.491455 
z"/>
<path fill="#EFBBD9" opacity="1.000000" stroke="none" 
	d="
M93.912369,1065.362305 
	C95.629234,1072.554565 91.747345,1081.421997 85.398666,1083.997192 
	C87.936615,1077.902710 90.844467,1071.802246 93.912369,1065.362305 
z"/>
<path fill="#EFBBD9" opacity="1.000000" stroke="none" 
	d="
M95.061928,1049.485229 
	C95.061264,1052.948486 95.022072,1056.856934 94.623863,1060.872314 
	C94.517693,1057.296387 94.770546,1053.613281 95.061928,1049.485229 
z"/>
<path fill="#EFBBD9" opacity="1.000000" stroke="none" 
	d="
M689.909912,892.514160 
	C689.700378,890.171448 689.533020,887.385681 689.632568,884.321167 
	C689.917053,886.718689 689.934570,889.394958 689.909912,892.514160 
z"/>
<path fill="#FDDAF0" opacity="1.000000" stroke="none" 
	d="
M831.268250,970.940308 
	C831.396301,970.000122 831.870789,969.011597 832.701843,968.049927 
	C832.577209,969.015137 832.095947,969.953491 831.268250,970.940308 
z"/>
<path fill="#EFBBD9" opacity="1.000000" stroke="none" 
	d="
M95.095154,847.247437 
	C95.528168,847.166687 95.928116,847.335999 96.328079,847.505249 
	C96.079041,847.657898 95.829994,847.810547 95.346176,847.981323 
	C95.094963,847.832092 95.078529,847.664734 95.095154,847.247437 
z"/>
<path fill="#EFBBD9" opacity="1.000000" stroke="none" 
	d="
M643.029724,884.257507 
	C643.214600,884.178406 643.392822,884.329895 643.525879,884.514038 
	C643.554321,884.553467 643.418884,884.711304 643.199829,884.899902 
	C643.040833,884.985168 643.006958,884.499756 643.029724,884.257507 
z"/>
<path fill="#FDDAF0" opacity="1.000000" stroke="none" 
	d="
M831.927246,929.696533 
	C831.703430,929.872925 831.423279,929.720764 831.109009,929.219177 
	C831.322754,929.080505 831.588135,929.246582 831.927246,929.696533 
z"/>
<path fill="#FDDAF0" opacity="1.000000" stroke="none" 
	d="
M903.936279,929.767212 
	C903.858948,929.936523 903.678528,929.949707 903.227661,929.937378 
	C903.249268,929.811523 903.541199,929.711304 903.936279,929.767212 
z"/>
<path fill="#FDDAF0" opacity="1.000000" stroke="none" 
	d="
M1335.869141,843.807068 
	C1335.638428,843.924255 1335.390991,843.729370 1335.090820,843.248779 
	C1335.329590,843.094116 1335.601074,843.271362 1335.869141,843.807068 
z"/>
<path fill="#FFFFFF" opacity="1.000000" stroke="none" 
	d="
M276.102417,879.380737 
	C276.716309,879.066895 277.617432,878.977966 277.668823,879.147217 
	C286.723602,908.959961 295.721405,938.789917 304.693420,968.627686 
	C304.920410,969.382568 304.839142,970.230164 304.939789,971.525269 
	C286.367828,971.525269 268.050385,971.525269 249.273865,971.525269 
	C249.273865,970.267273 248.972641,968.926880 249.317902,967.781372 
	C258.168457,938.417297 267.086548,909.073547 276.102417,879.380737 
z"/>
</svg>